<svg width="524" height="389" viewBox="0 0 524 389" fill="none" xmlns="http://www.w3.org/2000/svg">
<path fill-rule="evenodd" clip-rule="evenodd" d="M78.9317 78.8949C80.5649 78.8949 81.8889 80.1779 81.8889 81.7606V100.297C81.8889 101.879 80.5649 103.162 78.9317 103.162H37.1969C35.5637 103.162 34.2397 101.879 34.2397 100.297C34.2397 98.7141 35.5637 97.4311 37.1969 97.4311H75.9746V81.7606C75.9746 80.1779 77.2985 78.8949 78.9317 78.8949Z" fill="#0092E4"/>
<path fill-rule="evenodd" clip-rule="evenodd" d="M78.8899 78.8949C80.5231 78.8949 81.847 80.1779 81.847 81.7606V97.4311H120.625C122.258 97.4311 123.582 98.7141 123.582 100.297C123.582 101.879 122.258 103.162 120.625 103.162H78.8899C77.2567 103.162 75.9327 101.879 75.9327 100.297V81.7606C75.9327 80.1779 77.2567 78.8949 78.8899 78.8949Z" fill="#0092E4"/>
<path fill-rule="evenodd" clip-rule="evenodd" d="M55.0862 100.972C55.0862 99.3897 56.4102 98.1067 58.0434 98.1067H99.7782C101.411 98.1067 102.735 99.3897 102.735 100.972V119.509C102.735 121.091 101.411 122.374 99.7782 122.374H58.0434C56.4102 122.374 55.0862 121.091 55.0862 119.509V100.972ZM61.0005 103.838V116.643H96.821V103.838H61.0005Z" fill="#0092E4"/>
<path fill-rule="evenodd" clip-rule="evenodd" d="M75.9327 119.292C75.9327 117.644 77.2567 116.307 78.8899 116.307H120.625C122.258 116.307 123.582 117.644 123.582 119.292C123.582 120.941 122.258 122.277 120.625 122.277H81.847V135.616H90.7563C92.3895 135.616 93.7135 136.952 93.7135 138.601C93.7135 140.25 92.3895 141.586 90.7563 141.586H78.8899C77.2567 141.586 75.9327 140.25 75.9327 138.601V119.292Z" fill="#0092E4"/>
<path fill-rule="evenodd" clip-rule="evenodd" d="M34.2397 119.292C34.2397 117.644 35.5637 116.307 37.1969 116.307H78.9317C80.5649 116.307 81.8889 117.644 81.8889 119.292V138.601C81.8889 140.25 80.5649 141.586 78.9317 141.586H45.0854C43.4522 141.586 42.1282 140.25 42.1282 138.601C42.1282 136.952 43.4522 135.616 45.0854 135.616H75.9746V122.277H37.1969C35.5637 122.277 34.2397 120.941 34.2397 119.292Z" fill="#0092E4"/>
<path fill-rule="evenodd" clip-rule="evenodd" d="M19.3494 100.972C19.3494 99.3897 20.6944 98.1067 22.3535 98.1067H58.0383C59.6974 98.1067 61.0424 99.3897 61.0424 100.972V119.509C61.0424 121.091 59.6974 122.374 58.0383 122.374H36.8055C35.1464 122.374 33.8014 121.091 33.8014 119.509C33.8014 117.926 35.1464 116.643 36.8055 116.643H55.0342V103.838H22.3535C20.6944 103.838 19.3494 102.555 19.3494 100.972Z" fill="#0092E4"/>
<path fill-rule="evenodd" clip-rule="evenodd" d="M96.7793 100.972C96.7793 99.3897 98.1281 98.1067 99.7919 98.1067H114.56C116.224 98.1067 117.573 99.3897 117.573 100.972C117.573 102.555 116.224 103.838 114.56 103.838H102.805V116.643H130.496C132.16 116.643 133.509 117.926 133.509 119.509C133.509 121.091 132.16 122.374 130.496 122.374H99.7919C98.1281 122.374 96.7793 121.091 96.7793 119.509V100.972Z" fill="#0092E4"/>
<path fill-rule="evenodd" clip-rule="evenodd" d="M469.059 146.642C470.692 146.642 472.016 147.978 472.016 149.627V168.935C472.016 170.584 470.692 171.92 469.059 171.92H427.324C425.691 171.92 424.367 170.584 424.367 168.935C424.367 167.287 425.691 165.95 427.324 165.95H466.102V149.627C466.102 147.978 467.426 146.642 469.059 146.642Z" fill="#0092E4"/>
<path fill-rule="evenodd" clip-rule="evenodd" d="M469.021 146.642C470.657 146.642 471.983 147.978 471.983 149.627V165.95H510.748C512.383 165.95 513.709 167.287 513.709 168.935C513.709 170.584 512.383 171.92 510.748 171.92H469.021C467.386 171.92 466.06 170.584 466.06 168.935V149.627C466.06 147.978 467.386 146.642 469.021 146.642Z" fill="#0092E4"/>
<path fill-rule="evenodd" clip-rule="evenodd" d="M445.214 168.719C445.214 167.137 446.537 165.854 448.171 165.854H489.906C491.539 165.854 492.863 167.137 492.863 168.719V187.255C492.863 188.838 491.539 190.121 489.906 190.121H448.171C446.537 190.121 445.214 188.838 445.214 187.255V168.719ZM451.128 171.585V184.39H486.948V171.585H451.128Z" fill="#0092E4"/>
<path fill-rule="evenodd" clip-rule="evenodd" d="M466.06 187.931C466.06 186.348 467.386 185.065 469.021 185.065H510.748C512.383 185.065 513.709 186.348 513.709 187.931C513.709 189.514 512.383 190.797 510.748 190.797H471.983V203.602H480.837C482.473 203.602 483.798 204.884 483.798 206.467C483.798 208.05 482.473 209.333 480.837 209.333H469.021C467.386 209.333 466.06 208.05 466.06 206.467V187.931Z" fill="#0092E4"/>
<path fill-rule="evenodd" clip-rule="evenodd" d="M424.367 187.931C424.367 186.348 425.691 185.065 427.324 185.065H469.059C470.692 185.065 472.016 186.348 472.016 187.931V206.467C472.016 208.05 470.692 209.333 469.059 209.333H435.213C433.579 209.333 432.255 208.05 432.255 206.467C432.255 204.884 433.579 203.602 435.213 203.602H466.102V190.797H427.324C425.691 190.797 424.367 189.514 424.367 187.931Z" fill="#0092E4"/>
<path fill-rule="evenodd" clip-rule="evenodd" d="M409.477 168.831C409.477 167.187 410.824 165.854 412.486 165.854H448.161C449.822 165.854 451.17 167.187 451.17 168.831V188.154C451.17 189.799 449.822 191.132 448.161 191.132H426.961C425.3 191.132 423.952 189.799 423.952 188.154C423.952 186.51 425.3 185.177 426.961 185.177H445.152V171.809H412.486C410.824 171.809 409.477 170.476 409.477 168.831Z" fill="#8DC6BF"/>
<path fill-rule="evenodd" clip-rule="evenodd" d="M486.906 168.831C486.906 167.187 488.258 165.854 489.925 165.854H504.652C506.319 165.854 507.67 167.187 507.67 168.831C507.67 170.476 506.319 171.809 504.652 171.809H492.943V185.177H520.618C522.285 185.177 523.636 186.51 523.636 188.154C523.636 189.799 522.285 191.132 520.618 191.132H489.925C488.258 191.132 486.906 189.799 486.906 188.154V168.831Z" fill="#0092E4"/>
<path fill-rule="evenodd" clip-rule="evenodd" d="M494.848 353.421C494.848 350.908 497.062 348.871 499.793 348.871H516.705C519.437 348.871 521.651 350.908 521.651 353.421C521.651 355.934 519.437 357.971 516.705 357.971H499.793C497.062 357.971 494.848 355.934 494.848 353.421Z" fill="#1D2F3D"/>
<path fill-rule="evenodd" clip-rule="evenodd" d="M217.887 353.421C217.887 350.908 220.11 348.871 222.852 348.871H483.927C486.669 348.871 488.892 350.908 488.892 353.421C488.892 355.934 486.669 357.971 483.927 357.971H222.852C220.11 357.971 217.887 355.934 217.887 353.421Z" fill="#1D2F3D"/>
<path fill-rule="evenodd" clip-rule="evenodd" d="M194.063 353.421C194.063 350.908 196.279 348.871 199.012 348.871H211.945C214.679 348.871 216.895 350.908 216.895 353.421C216.895 355.934 214.679 357.971 211.945 357.971H199.012C196.279 357.971 194.063 355.934 194.063 353.421Z" fill="#1D2F3D"/>
<path fill-rule="evenodd" clip-rule="evenodd" d="M0.488281 353.421C0.488281 350.908 2.71525 348.871 5.46236 348.871H188.096C190.843 348.871 193.07 350.908 193.07 353.421C193.07 355.934 190.843 357.971 188.096 357.971H5.46236C2.71525 357.971 0.488281 355.934 0.488281 353.421Z" fill="#1D2F3D"/>
<path fill-rule="evenodd" clip-rule="evenodd" d="M425.36 338.543C425.36 335.871 427.606 333.704 430.377 333.704H455.086C457.857 333.704 460.104 335.871 460.104 338.543V353.132C460.104 355.805 457.857 357.971 455.086 357.971H430.377C427.606 357.971 425.36 355.805 425.36 353.132V338.543ZM435.394 343.383V348.292H450.069V343.383H435.394Z" fill="#1D2F3D"/>
<path d="M455.14 338.76H430.323V352.916H455.14V338.76Z" fill="#1D2F3D"/>
<path fill-rule="evenodd" clip-rule="evenodd" d="M80.8962 338.543C80.8962 335.871 83.1425 333.704 85.9135 333.704H110.623C113.394 333.704 115.64 335.871 115.64 338.543V353.132C115.64 355.805 113.394 357.971 110.623 357.971H85.9135C83.1425 357.971 80.8962 355.805 80.8962 353.132V338.543ZM90.9309 343.383V348.292H105.606V343.383H90.9309Z" fill="#1D2F3D"/>
<path d="M110.677 338.76H85.8596V352.916H110.677V338.76Z" fill="#1D2F3D"/>
<path d="M483.928 321.57H57.0716V338.76H483.928V321.57Z" fill="#E7E0D0"/>
<path fill-rule="evenodd" clip-rule="evenodd" d="M52.1082 321.463C52.1082 318.73 54.332 316.514 57.0751 316.514H483.925C486.668 316.514 488.892 318.73 488.892 321.463V338.867C488.892 341.6 486.668 343.815 483.925 343.815H57.0751C54.332 343.815 52.1082 341.6 52.1082 338.867V321.463ZM62.0421 326.412V333.918H478.958V326.412H62.0421Z" fill="#1D2F3D"/>
<path d="M483.928 231.578H57.0716V242.701H483.928V231.578Z" fill="#E7E0D0"/>
<path fill-rule="evenodd" clip-rule="evenodd" d="M52.1082 231.506C52.1082 228.754 54.332 226.522 57.0751 226.522H483.925C486.668 226.522 488.892 228.754 488.892 231.506V242.773C488.892 245.525 486.668 247.756 483.925 247.756H57.0751C54.332 247.756 52.1082 245.525 52.1082 242.773V231.506ZM62.0421 236.489V237.789H478.958V236.489H62.0421Z" fill="#1D2F3D"/>
<path d="M474.002 242.701H270.5V321.57H474.002V242.701Z" fill="#E7E0D0"/>
<path fill-rule="evenodd" clip-rule="evenodd" d="M265.537 242.567C265.537 239.849 267.757 237.645 270.495 237.645H474.006C476.745 237.645 478.965 239.849 478.965 242.567V321.703C478.965 324.422 476.745 326.626 474.006 326.626H270.495C267.757 326.626 265.537 324.422 265.537 321.703V242.567ZM275.454 247.49V316.781H469.047V247.49H275.454Z" fill="#1D2F3D"/>
<path d="M474.002 242.701H270.5V321.57H290.036V258.659H474.002V242.701Z" fill="#1D2F3D"/>
<path d="M270.5 242.701H66.9985V282.135H270.5V242.701Z" fill="#FE615A"/>
<path d="M270.5 242.701H66.9985V282.135H270.5V242.701Z" fill="#EF4D4D"/>
<path d="M270.5 276.068H66.9985V282.135H270.5V276.068Z" fill="#1D2F3D"/>
<path d="M270.5 242.701H66.9985V255.846H270.5V242.701Z" fill="#1D2F3D"/>
<path fill-rule="evenodd" clip-rule="evenodd" d="M62.0351 242.581C62.0351 239.855 64.2552 237.645 66.9939 237.645H270.505C273.243 237.645 275.463 239.855 275.463 242.581V282.255C275.463 284.981 273.243 287.191 270.505 287.191H66.9939C64.2552 287.191 62.0351 284.981 62.0351 282.255V242.581ZM71.9527 247.516V277.32H265.546V247.516H71.9527Z" fill="#1D2F3D"/>
<path d="M270.5 282.135H66.9985V321.57H270.5V282.135Z" fill="#EF4D4D"/>
<path d="M270.5 315.503H66.9985V321.57H270.5V315.503Z" fill="#1D2F3D"/>
<path d="M270.5 282.135H66.9985V288.202H270.5V282.135Z" fill="#1D2F3D"/>
<path fill-rule="evenodd" clip-rule="evenodd" d="M62.0351 282.015C62.0351 279.289 64.2552 277.08 66.9939 277.08H270.505C273.243 277.08 275.463 279.289 275.463 282.015V321.69C275.463 324.416 273.243 326.626 270.505 326.626H66.9939C64.2552 326.626 62.0351 324.416 62.0351 321.69V282.015ZM71.9527 286.951V316.754H265.546V286.951H71.9527Z" fill="#1D2F3D"/>
<path d="M75.9327 242.701H66.9985V321.57H75.9327V242.701Z" fill="#E7E0D0"/>
<path fill-rule="evenodd" clip-rule="evenodd" d="M62.0351 242.567C62.0351 239.849 64.1919 237.645 66.8525 237.645H76.0788C78.7394 237.645 80.8962 239.849 80.8962 242.567V321.703C80.8962 324.422 78.7394 326.626 76.0788 326.626H66.8525C64.1919 326.626 62.0351 324.422 62.0351 321.703V242.567Z" fill="#1D2F3D"/>
<path d="M275.463 242.701H265.537V321.57H275.463V242.701Z" fill="#E7E0D0"/>
<path fill-rule="evenodd" clip-rule="evenodd" d="M260.573 242.567C260.573 239.849 262.843 237.645 265.644 237.645H275.356C278.157 237.645 280.427 239.849 280.427 242.567V321.703C280.427 324.422 278.157 326.626 275.356 326.626H265.644C262.843 326.626 260.573 324.422 260.573 321.703V242.567Z" fill="#1D2F3D"/>
<path fill-rule="evenodd" clip-rule="evenodd" d="M461.096 242.567C461.096 239.849 463.367 237.645 466.167 237.645H475.879C478.68 237.645 480.95 239.849 480.95 242.567V321.703C480.95 324.422 478.68 326.626 475.879 326.626H466.167C463.367 326.626 461.096 324.422 461.096 321.703V242.567Z" fill="#1D2F3D"/>
<path d="M391.608 207.31H282.412V231.578H391.608V207.31Z" fill="#938F8F"/>
<path d="M391.608 226.522H282.412V231.578H391.608V226.522Z" fill="#938F8F"/>
<path d="M391.608 207.31H282.412V212.366H391.608V207.31Z" fill="#AAAAAA"/>
<path fill-rule="evenodd" clip-rule="evenodd" d="M277.449 207.238C277.449 204.486 279.655 202.255 282.376 202.255H391.644C394.366 202.255 396.572 204.486 396.572 207.238V231.65C396.572 234.403 394.366 236.634 391.644 236.634H282.376C279.655 236.634 277.449 234.403 277.449 231.65V207.238ZM287.304 212.222V226.667H386.717V212.222H287.304Z" fill="#1D2F3D"/>
<path fill-rule="evenodd" clip-rule="evenodd" d="M325.098 217.422C325.098 216.305 325.987 215.4 327.084 215.4H370.761C371.858 215.4 372.747 216.305 372.747 217.422C372.747 218.539 371.858 219.444 370.761 219.444H327.084C325.987 219.444 325.098 218.539 325.098 217.422Z" fill="#1D2F3D"/>
<path fill-rule="evenodd" clip-rule="evenodd" d="M325.098 222.478C325.098 221.361 325.986 220.455 327.081 220.455H348.924C350.02 220.455 350.908 221.361 350.908 222.478C350.908 223.595 350.02 224.5 348.924 224.5H327.081C325.986 224.5 325.098 223.595 325.098 222.478Z" fill="#1D2F3D"/>
<path d="M303.259 223.489C306 223.489 308.222 221.678 308.222 219.444C308.222 217.211 306 215.4 303.259 215.4C300.518 215.4 298.295 217.211 298.295 219.444C298.295 221.678 300.518 223.489 303.259 223.489Z" fill="#E7E0D0"/>
<path fill-rule="evenodd" clip-rule="evenodd" d="M303.259 217.172C301.514 217.172 300.405 218.338 300.405 219.444C300.405 220.55 301.514 221.717 303.259 221.717C305.003 221.717 306.113 220.55 306.113 219.444C306.113 218.338 305.003 217.172 303.259 217.172ZM296.31 219.444C296.31 215.944 299.589 213.377 303.259 213.377C306.928 213.377 310.208 215.944 310.208 219.444C310.208 222.944 306.928 225.511 303.259 225.511C299.589 225.511 296.31 222.944 296.31 219.444Z" fill="#1D2F3D"/>
<path d="M444.219 193.154H232.712C226.742 193.154 221.858 188.715 221.858 183.29V76.626C221.858 71.2003 226.742 66.7612 232.712 66.7612H444.287C450.256 66.7612 455.14 71.2003 455.14 76.626V183.29C455.073 188.777 450.256 193.154 444.219 193.154Z" fill="#546672"/>
<path d="M444.219 185.823H232.712C226.742 185.823 221.858 181.387 221.858 175.965V183.297C221.858 188.718 226.742 193.154 232.712 193.154H444.287C450.256 193.154 455.14 188.718 455.14 183.297V175.965C455.073 181.387 450.256 185.823 444.219 185.823Z" fill="#546672"/>
<path d="M444.219 66.7612H232.712C226.742 66.7612 221.858 71.1293 221.858 76.4682V81.9284C221.858 76.5895 226.742 72.2214 232.712 72.2214H444.287C450.256 72.2214 455.14 76.5895 455.14 81.9284V76.4682C455.073 71.0686 450.256 66.7612 444.219 66.7612Z" fill="#546672"/>
<path d="M232.778 168.918V81.8969C232.778 78.5713 235.772 75.8615 239.447 75.8615H437.551C441.226 75.8615 444.221 78.5713 444.221 81.8969V168.918C444.221 172.244 441.226 174.954 437.551 174.954H239.447C235.772 174.954 232.778 172.244 232.778 168.918Z" fill="#1D2F3D"/>
<path fill-rule="evenodd" clip-rule="evenodd" d="M232.708 71.5443C229.069 71.5443 226.812 74.1777 226.812 76.511V183.405C226.812 185.738 229.069 188.371 232.708 188.371H444.223C447.9 188.371 450.141 185.818 450.186 183.369V76.511C450.186 74.1777 447.929 71.5443 444.291 71.5443H232.708ZM216.895 76.511C216.895 67.9696 224.406 61.7054 232.708 61.7054H444.291C452.592 61.7054 460.104 67.9696 460.104 76.511V183.405C460.104 183.425 460.104 183.445 460.103 183.465C459.998 192.007 452.609 198.21 444.223 198.21H232.708C224.406 198.21 216.895 191.946 216.895 183.405V76.511Z" fill="#1D2F3D"/>
<path d="M338.499 187.088C341.515 187.088 343.959 185.05 343.959 182.537C343.959 180.024 341.515 177.987 338.499 177.987C335.484 177.987 333.039 180.024 333.039 182.537C333.039 185.05 335.484 187.088 338.499 187.088Z" fill="#D1E3ED"/>
<path d="M338.499 186.076C340.966 186.076 342.966 184.266 342.966 182.032C342.966 179.798 340.966 177.987 338.499 177.987C336.032 177.987 334.032 179.798 334.032 182.032C334.032 184.266 336.032 186.076 338.499 186.076Z" fill="#1D2F3D"/>
<path d="M317.156 282.135C322.091 282.135 326.091 278.514 326.091 274.046C326.091 269.579 322.091 265.957 317.156 265.957C312.222 265.957 308.222 269.579 308.222 274.046C308.222 278.514 312.222 282.135 317.156 282.135Z" fill="#61BA4F"/>
<path fill-rule="evenodd" clip-rule="evenodd" d="M317.156 270.792C314.545 270.792 313.165 272.638 313.165 274.046C313.165 275.454 314.545 277.3 317.156 277.3C319.767 277.3 321.148 275.454 321.148 274.046C321.148 272.638 319.767 270.792 317.156 270.792ZM303.259 274.046C303.259 266.397 309.888 260.901 317.156 260.901C324.425 260.901 331.054 266.397 331.054 274.046C331.054 281.695 324.425 287.191 317.156 287.191C309.888 287.191 303.259 281.695 303.259 274.046Z" fill="#1D2F3D"/>
<path d="M310.318 261.462C307.994 258.018 303.553 258.018 301.23 261.462C298.223 266.013 296.31 272.409 296.31 279.542C296.31 289.751 300.205 298.545 305.74 302.358C311.274 298.545 315.169 289.751 315.169 279.542C315.238 272.409 313.324 265.951 310.318 261.462Z" fill="#61BA4F"/>
<path fill-rule="evenodd" clip-rule="evenodd" d="M305.774 253.823C309.281 253.823 312.467 255.645 314.465 258.63L314.474 258.644C318.093 264.092 320.204 271.57 320.133 279.559C320.127 290.725 315.94 301.424 308.605 306.518C306.886 307.713 304.593 307.713 302.874 306.518C295.534 301.421 291.346 290.711 291.346 279.536C291.346 271.553 293.46 264.158 297.056 258.67L297.082 258.63C299.08 255.645 302.266 253.823 305.774 253.823ZM305.407 264.049C303.012 267.717 301.315 273.18 301.315 279.536C301.315 286.41 303.246 292.002 305.74 295.507C308.233 292.002 310.165 286.41 310.165 279.536L310.165 279.49C310.225 273.139 308.522 267.639 306.147 264.059C305.976 263.805 305.837 263.715 305.792 263.69C305.785 263.686 305.779 263.683 305.774 263.68C305.769 263.683 305.762 263.686 305.755 263.69C305.711 263.714 305.575 263.802 305.407 264.049ZM305.793 263.673L305.791 263.673L305.793 263.673ZM305.756 263.673L305.754 263.673L305.756 263.673Z" fill="#1D2F3D"/>
<path d="M317.527 321.57H293.954L290.354 294.269H321.127L317.527 321.57Z" fill="#FFEA87"/>
<path d="M290.354 294.269L293.77 321.57H305.244L304.019 294.269H290.354Z" fill="#3D3D3D"/>
<path fill-rule="evenodd" clip-rule="evenodd" d="M286.62 291.895C287.563 290.833 288.924 290.225 290.356 290.225H321.125C322.557 290.225 323.918 290.833 324.861 291.895C325.804 292.956 326.236 294.367 326.047 295.765L322.447 322.379C322.118 324.81 320.014 326.626 317.525 326.626H293.956C291.467 326.626 289.363 324.81 289.034 322.379L285.434 295.765C285.245 294.367 285.677 292.956 286.62 291.895ZM296.027 300.012L298.303 316.839H313.178L315.454 300.012H296.027Z" fill="#1D2F3D"/>
<path d="M466.06 257.868H453.155V321.57H466.06V257.868Z" fill="#FF6259"/>
<path fill-rule="evenodd" clip-rule="evenodd" d="M448.192 257.754C448.192 255.025 450.35 252.812 453.012 252.812H466.203C468.865 252.812 471.023 255.025 471.023 257.754V321.684C471.023 324.413 468.865 326.626 466.203 326.626H453.012C450.35 326.626 448.192 324.413 448.192 321.684V257.754ZM457.833 262.696V316.742H461.382V262.696H457.833Z" fill="#1D2F3D"/>
<path d="M453.155 261.912H437.272V321.57H453.155V261.912Z" fill="#F7B363"/>
<path fill-rule="evenodd" clip-rule="evenodd" d="M432.308 262.759C432.308 260.058 434.554 257.868 437.324 257.868H453.103C455.873 257.868 458.118 260.058 458.118 262.759V321.735C458.118 324.436 455.873 326.626 453.103 326.626H437.324C434.554 326.626 432.308 324.436 432.308 321.735V262.759ZM442.339 267.65V316.843H448.088V267.65H442.339Z" fill="#1D2F3D"/>
<path d="M436.828 268.87L426.225 264.294L399.637 314.795L410.24 319.372L436.828 268.87Z" fill="#0AC4DD"/>
<path fill-rule="evenodd" clip-rule="evenodd" d="M421.677 262.331C422.94 259.932 426 258.866 428.512 259.95L439.115 264.526C441.627 265.61 442.638 268.434 441.375 270.833L414.787 321.334C413.524 323.734 410.465 324.8 407.953 323.716L397.349 319.139C394.838 318.056 393.826 315.232 395.09 312.833L421.677 262.331ZM428.484 270.601L406.471 312.414L407.98 313.065L429.994 271.252L428.484 270.601Z" fill="#1D2F3D"/>
<path d="M390.615 310.447H330.061V321.57H390.615V310.447Z" fill="#F7B363"/>
<path fill-rule="evenodd" clip-rule="evenodd" d="M325.098 310.346C325.098 307.61 327.309 305.392 330.037 305.392H390.64C393.368 305.392 395.579 307.61 395.579 310.346V321.671C395.579 324.408 393.368 326.626 390.64 326.626H330.037C327.309 326.626 325.098 324.408 325.098 321.671V310.346ZM334.975 315.3V316.717H385.701V315.3H334.975Z" fill="#1D2F3D"/>
<path d="M394.586 299.325H337.01V310.447H394.586V299.325Z" fill="#8BB572"/>
<path fill-rule="evenodd" clip-rule="evenodd" d="M332.047 298.212C332.047 295.476 334.26 293.258 336.99 293.258H394.606C397.337 293.258 399.55 295.476 399.55 298.212V309.538C399.55 312.274 397.337 314.492 394.606 314.492H336.99C334.26 314.492 332.047 312.274 332.047 309.538V298.212ZM341.933 303.167V304.583H389.663V303.167H341.933Z" fill="#1D2F3D"/>
<path d="M160.311 141.586H104.721V230.567H160.311V141.586Z" fill="#976B50"/>
<path d="M160.311 141.586H104.721V230.567H160.311V141.586Z" fill="#976B50"/>
<path d="M160.311 141.586H104.721V147.653H160.311V141.586Z" fill="#976B50"/>
<path d="M160.311 223.489H104.721V230.567H160.311V223.489Z" fill="#976B50"/>
<path fill-rule="evenodd" clip-rule="evenodd" d="M99.7573 141.448C99.7573 138.732 102 136.53 104.766 136.53H160.266C163.032 136.53 165.275 138.732 165.275 141.448V230.705C165.275 233.421 163.032 235.623 160.266 235.623H104.766C102 235.623 99.7573 233.421 99.7573 230.705V141.448ZM109.775 146.366V225.787H155.257V146.366H109.775Z" fill="#1D2F3D"/>
<path d="M132.02 186.076C141.066 186.076 148.399 179.512 148.399 171.415C148.399 163.317 141.066 156.753 132.02 156.753C122.974 156.753 115.64 163.317 115.64 171.415C115.64 179.512 122.974 186.076 132.02 186.076Z" fill="#E7E0D0"/>
<path d="M115.64 170.909C115.64 163.091 122.973 156.753 132.02 156.753C141.066 156.753 148.399 163.091 148.399 170.909H115.64Z" fill="#E7E0D0"/>
<path fill-rule="evenodd" clip-rule="evenodd" d="M132.02 160.368C124.871 160.368 119.671 165.389 119.671 170.909C119.671 176.429 124.871 181.45 132.02 181.45C139.169 181.45 144.369 176.429 144.369 170.909C144.369 165.389 139.169 160.368 132.02 160.368ZM111.67 170.909C111.67 160.556 121.109 152.709 132.02 152.709C142.93 152.709 152.37 160.556 152.37 170.909C152.37 181.263 142.93 189.11 132.02 189.11C121.109 189.11 111.67 181.263 111.67 170.909Z" fill="#1D2F3D"/>
<path d="M131.523 176.976C134.813 176.976 137.48 174.486 137.48 171.415C137.48 168.343 134.813 165.854 131.523 165.854C128.234 165.854 125.567 168.343 125.567 171.415C125.567 174.486 128.234 176.976 131.523 176.976Z" fill="#1D2F3D"/>
<path d="M131.523 216.411C137.006 216.411 141.45 212.336 141.45 207.311C141.45 202.285 137.006 198.21 131.523 198.21C126.041 198.21 121.596 202.285 121.596 207.311C121.596 212.336 126.041 216.411 131.523 216.411Z" fill="#E7E0D0"/>
<path d="M121.596 207.311C121.596 202.268 126.023 198.21 131.523 198.21C137.023 198.21 141.45 202.268 141.45 207.311H121.596Z" fill="#E7E0D0"/>
<path d="M132.02 210.344C133.939 210.344 135.494 208.986 135.494 207.311C135.494 205.635 133.939 204.277 132.02 204.277C130.101 204.277 128.545 205.635 128.545 207.311C128.545 208.986 130.101 210.344 132.02 210.344Z" fill="#1D2F3D"/>
<path fill-rule="evenodd" clip-rule="evenodd" d="M131.523 202.076C127.872 202.076 125.498 204.731 125.498 207.311C125.498 209.89 127.872 212.545 131.523 212.545C135.174 212.545 137.549 209.89 137.549 207.311C137.549 204.731 135.174 202.076 131.523 202.076ZM117.626 207.311C117.626 199.74 124.171 194.166 131.523 194.166C138.876 194.166 145.421 199.74 145.421 207.311C145.421 214.882 138.876 220.455 131.523 220.455C124.171 220.455 117.626 214.882 117.626 207.311Z" fill="#1D2F3D"/>
<path d="M160.821 77.8838H104.211C97.9364 77.8838 92.8085 73.1828 92.8085 67.4304V15.5346C92.8085 9.78215 97.9364 5.08122 104.211 5.08122H160.821C167.096 5.08122 172.224 9.78215 172.224 15.5346V67.4304C172.224 73.2447 167.096 77.8838 160.821 77.8838Z" fill="#E7E0D0"/>
<path d="M160.821 5.08122H104.211C97.9364 5.08122 92.8085 9.65832 92.8085 15.2593V24.293C92.8085 18.6921 97.9364 14.115 104.211 14.115H160.821C167.096 14.115 172.224 18.6921 172.224 24.293V15.2593C172.224 9.65832 167.096 5.08122 160.821 5.08122Z" fill="#E7E0D0"/>
<path fill-rule="evenodd" clip-rule="evenodd" d="M104.192 9.78563C100.233 9.78563 97.7163 12.6431 97.7163 15.2642V66.6897C97.7163 69.3107 100.233 72.1682 104.192 72.1682H160.841C164.819 72.1682 167.316 69.3541 167.316 66.6897V15.2642C167.316 12.6431 164.799 9.78563 160.841 9.78563H104.192ZM87.845 15.2642C87.845 6.48465 95.5917 0.0254822 104.192 0.0254822H160.841C169.441 0.0254822 177.187 6.48465 177.187 15.2642V66.6897C177.187 75.5484 169.421 81.9284 160.841 81.9284H104.192C95.5917 81.9284 87.845 75.4692 87.845 66.6897V15.2642Z" fill="#1D2F3D"/>
<path fill-rule="evenodd" clip-rule="evenodd" d="M112.662 41.4825C112.662 39.8072 113.955 38.449 115.55 38.449H132.606C134.201 38.449 135.494 39.8072 135.494 41.4825C135.494 43.1578 134.201 44.5159 132.606 44.5159H115.55C113.955 44.5159 112.662 43.1578 112.662 41.4825Z" fill="#1D2F3D"/>
<path fill-rule="evenodd" clip-rule="evenodd" d="M148.541 18.583C149.441 19.21 149.662 20.4469 149.034 21.3458L134.148 42.6554C133.521 43.5543 132.282 43.7748 131.381 43.1479C130.481 42.5209 130.26 41.284 130.888 40.3851L145.774 19.0755C146.402 18.1766 147.641 17.9561 148.541 18.583Z" fill="#1D2F3D"/>
<path d="M475.987 242.701H466.06V321.57H475.987V242.701Z" fill="#E7E0D0"/>
<path fill-rule="evenodd" clip-rule="evenodd" d="M461.096 242.567C461.096 239.849 463.367 237.645 466.167 237.645H475.879C478.68 237.645 480.95 239.849 480.95 242.567V321.703C480.95 324.422 478.68 326.626 475.879 326.626H466.167C463.367 326.626 461.096 324.422 461.096 321.703V242.567Z" fill="#1D2F3D"/>
<path d="M168.749 271.013C173.958 271.013 178.18 267.165 178.18 262.418C178.18 257.671 173.958 253.823 168.749 253.823C163.541 253.823 159.319 257.671 159.319 262.418C159.319 267.165 163.541 271.013 168.749 271.013Z" fill="#E7E0D0"/>
<path fill-rule="evenodd" clip-rule="evenodd" d="M168.749 258.576C165.801 258.576 164.139 260.682 164.139 262.418C164.139 264.154 165.801 266.26 168.749 266.26C171.697 266.26 173.36 264.154 173.36 262.418C173.36 260.682 171.697 258.576 168.749 258.576ZM154.355 262.418C154.355 254.493 161.201 248.767 168.749 248.767C176.297 248.767 183.143 254.493 183.143 262.418C183.143 270.343 176.297 276.068 168.749 276.068C161.201 276.068 154.355 270.343 154.355 262.418Z" fill="#1D2F3D"/>
<path d="M168.749 310.447C173.958 310.447 178.18 306.599 178.18 301.853C178.18 297.106 173.958 293.258 168.749 293.258C163.541 293.258 159.319 297.106 159.319 301.853C159.319 306.599 163.541 310.447 168.749 310.447Z" fill="#E7E0D0"/>
<path fill-rule="evenodd" clip-rule="evenodd" d="M168.749 298.01C165.801 298.01 164.139 300.117 164.139 301.853C164.139 303.589 165.801 305.695 168.749 305.695C171.697 305.695 173.36 303.589 173.36 301.853C173.36 300.117 171.697 298.01 168.749 298.01ZM154.355 301.853C154.355 293.928 161.201 288.202 168.749 288.202C176.297 288.202 183.143 293.928 183.143 301.853C183.143 309.778 176.297 315.503 168.749 315.503C161.201 315.503 154.355 309.778 154.355 301.853Z" fill="#1D2F3D"/>
<path fill-rule="evenodd" clip-rule="evenodd" d="M448.192 275.563C448.192 273.05 450.35 271.013 453.012 271.013H466.203C468.865 271.013 471.023 273.05 471.023 275.563C471.023 278.076 468.865 280.113 466.203 280.113H453.012C450.35 280.113 448.192 278.076 448.192 275.563Z" fill="#1D2F3D"/>
<path fill-rule="evenodd" clip-rule="evenodd" d="M432.308 282.135C432.308 279.343 434.554 277.08 437.324 277.08H453.103C455.873 277.08 458.118 279.343 458.118 282.135C458.118 284.928 455.873 287.191 453.103 287.191H437.324C434.554 287.191 432.308 284.928 432.308 282.135Z" fill="#1D2F3D"/>
<path fill-rule="evenodd" clip-rule="evenodd" d="M414.844 275.915C415.906 273.482 418.729 272.374 421.15 273.441L431.429 277.973C433.85 279.04 434.951 281.878 433.89 284.311C432.828 286.745 430.005 287.852 427.584 286.785L417.305 282.253C414.884 281.186 413.783 278.348 414.844 275.915Z" fill="#1D2F3D"/>
<path d="M375.725 75.8615H336.449L232.778 169.657C233.186 172.614 235.977 174.954 239.381 174.954H266.2L375.725 75.8615Z" fill="#D1E3ED"/>
<path d="M278.442 174.954H298.091L407.491 75.8615H387.841L278.442 174.954Z" fill="#D1E3ED"/>
<path d="M373.706 174.954L444.221 111.479V98.1067L358.849 174.954H373.706Z" fill="#D1E3ED"/>
<path fill-rule="evenodd" clip-rule="evenodd" d="M348.922 293.258C351.664 293.258 353.886 295.476 353.886 298.212V309.538C353.886 312.274 351.664 314.492 348.922 314.492C346.181 314.492 343.959 312.274 343.959 309.538V298.212C343.959 295.476 346.181 293.258 348.922 293.258Z" fill="#1D2F3D"/>
<path fill-rule="evenodd" clip-rule="evenodd" d="M132.516 6.09237C134.161 6.09237 135.494 7.49174 135.494 9.21795V13.0783C135.494 14.8045 134.161 16.2038 132.516 16.2038C130.871 16.2038 129.538 14.8045 129.538 13.0783V9.21795C129.538 7.49174 130.871 6.09237 132.516 6.09237Z" fill="#1D2F3D"/>
<path fill-rule="evenodd" clip-rule="evenodd" d="M132.516 66.7612C134.161 66.7612 135.494 68.0206 135.494 69.5742V73.0485C135.494 74.602 134.161 75.8615 132.516 75.8615C130.871 75.8615 129.538 74.602 129.538 73.0485V69.5742C129.538 68.0206 130.871 66.7612 132.516 66.7612Z" fill="#1D2F3D"/>
<path fill-rule="evenodd" clip-rule="evenodd" d="M161.304 41.4825C161.304 39.8072 162.633 38.449 164.272 38.449H168.263C169.902 38.449 171.231 39.8072 171.231 41.4825C171.231 43.1578 169.902 44.5159 168.263 44.5159H164.272C162.633 44.5159 161.304 43.1578 161.304 41.4825Z" fill="#1D2F3D"/>
<path fill-rule="evenodd" clip-rule="evenodd" d="M93.8011 41.4825C93.8011 39.8072 95.1297 38.449 96.7687 38.449H100.761C102.399 38.449 103.728 39.8072 103.728 41.4825C103.728 43.1578 102.399 44.5159 100.761 44.5159H96.7687C95.1297 44.5159 93.8011 43.1578 93.8011 41.4825Z" fill="#1D2F3D"/>
<path d="M132.516 45.5271C135.257 45.5271 137.48 43.4899 137.48 40.9769C137.48 38.4639 135.257 36.4268 132.516 36.4268C129.775 36.4268 127.553 38.4639 127.553 40.9769C127.553 43.4899 129.775 45.5271 132.516 45.5271Z" fill="#1D2F3D"/>
<path fill-rule="evenodd" clip-rule="evenodd" d="M372.747 305.392C375.488 305.392 377.711 307.636 377.711 310.405V321.613C377.711 324.381 375.488 326.626 372.747 326.626C370.006 326.626 367.784 324.381 367.784 321.613V310.405C367.784 307.636 370.006 305.392 372.747 305.392Z" fill="#1D2F3D"/>
<path fill-rule="evenodd" clip-rule="evenodd" d="M309.215 383.25C309.215 380.458 311.466 378.194 314.242 378.194H368.712C371.489 378.194 373.74 380.458 373.74 383.25C373.74 386.042 371.489 388.306 368.712 388.306H314.242C311.466 388.306 309.215 386.042 309.215 383.25Z" fill="#1D2F3D"/>
<path fill-rule="evenodd" clip-rule="evenodd" d="M286.383 383.25C286.383 380.458 288.514 378.194 291.142 378.194H302.47C305.099 378.194 307.23 380.458 307.23 383.25C307.23 386.042 305.099 388.306 302.47 388.306H291.142C288.514 388.306 286.383 386.042 286.383 383.25Z" fill="#1D2F3D"/>
<path fill-rule="evenodd" clip-rule="evenodd" d="M173.216 224.277C173.216 221.608 175.449 219.444 178.204 219.444H233.746C236.501 219.444 238.734 221.608 238.734 224.277V228.768C238.734 231.437 236.501 233.6 233.746 233.6H178.204C175.449 233.6 173.216 231.437 173.216 228.768V224.277Z" fill="#1D2F3D"/>
</svg>
